<svg version="1.1" id="Layer_1" xmlns="http://www.w3.org/2000/svg" xmlns:xlink="http://www.w3.org/1999/xlink" x="0px" y="0px"
	 width="100%" viewBox="0 0 512 487" enable-background="new 0 0 512 487" xml:space="preserve">
<path fill="#000000" opacity="1.000000" stroke="none" 
	d="
M1.000000,179.000000 
	C1.000000,119.348122 1.000000,60.196239 1.000000,1.022181 
	C171.609238,1.022181 342.218475,1.022181 512.913818,1.022181 
	C512.913818,163.235275 512.913818,325.470612 512.913818,487.852966 
	C342.333435,487.852966 171.666733,487.852966 1.000000,487.852966 
	C1.000000,385.114746 1.000000,282.307373 1.000000,179.000000 
M65.044800,390.581696 
	C65.329079,390.777771 65.613358,390.973816 65.898285,391.218323 
	C65.898285,391.218323 65.946754,391.217133 66.242363,391.814972 
	C70.420105,396.558228 74.597855,401.301483 78.770462,406.105713 
	C78.770462,406.105713 78.831635,406.104126 79.046799,406.585266 
	C79.331764,406.780945 79.616737,406.976624 79.901794,407.099487 
	C79.901794,407.099487 79.829018,407.099823 80.045319,407.582794 
	C80.331734,407.778168 80.618141,407.973541 80.904076,408.093994 
	C80.904076,408.093994 80.829155,408.094879 81.054176,408.571503 
	C81.337029,408.770844 81.619873,408.970184 81.908234,409.064423 
	C81.908234,409.064423 81.803146,409.059265 82.089653,409.641907 
	C82.404358,409.938538 82.719063,410.235168 82.983208,410.813843 
	C82.983208,410.813843 83.185760,411.016510 83.185760,411.016510 
	C83.185760,411.016510 83.467834,410.966125 83.940750,411.409607 
	C84.273666,411.673187 84.606583,411.936737 85.016258,412.089111 
	C85.016258,412.089111 84.944519,412.212830 85.238930,412.811066 
	C89.752975,416.555115 94.267014,420.299194 98.775146,424.101776 
	C98.775146,424.101776 98.833946,424.100952 99.045395,424.582672 
	C99.329346,424.778412 99.613304,424.974152 99.976044,425.055420 
	C99.976044,425.055420 99.874908,425.150574 100.208252,425.758087 
	C101.150406,426.349976 102.092552,426.941864 102.983521,427.814606 
	C102.983521,427.814606 103.185432,428.016479 103.185432,428.016479 
	C103.185432,428.016479 103.466316,427.965210 103.964645,428.461456 
	C104.938583,429.026459 105.912529,429.591431 106.897026,430.090881 
	C106.897026,430.090881 106.831108,430.098907 107.044708,430.581665 
	C107.329475,430.778259 107.614243,430.974884 107.994934,431.002441 
	C107.994934,431.002441 107.892357,431.168121 108.173622,431.729065 
	C109.071564,432.198242 109.969505,432.667419 110.880371,433.162445 
	C110.880371,433.162445 110.905968,433.175751 111.182098,433.754120 
	C112.093651,434.227020 113.005196,434.699921 113.957886,435.090820 
	C113.957886,435.090820 113.881958,435.142242 114.167015,435.718506 
	C115.073425,436.194824 115.979836,436.671143 116.996246,437.015747 
	C116.996246,437.015747 116.893799,437.154541 117.186493,437.725494 
	C118.090515,438.204224 118.994530,438.682953 119.999611,439.020081 
	C119.999611,439.020081 119.887756,439.152283 120.165680,439.735352 
	C121.081299,440.214508 121.996918,440.693665 122.935684,441.103943 
	C122.935684,441.103943 122.868530,441.131653 123.174164,441.744232 
	C124.734970,442.538361 126.295784,443.332458 127.854980,444.182556 
	C127.854980,444.182556 127.910843,444.178375 128.258820,444.800262 
	C129.834259,445.182037 131.409698,445.563843 133.277954,446.596619 
	C150.298553,455.224579 167.195404,463.939362 185.927124,468.740570 
	C200.454269,472.464081 214.922913,475.967010 230.306183,477.799805 
	C235.195343,478.200531 240.078934,478.831055 244.974930,478.949890 
	C252.945511,479.143311 260.933746,479.238220 268.896088,478.917236 
	C273.977966,478.712372 279.026642,477.683014 284.974091,476.996094 
	C297.425659,474.683655 309.881775,472.395508 322.327728,470.053375 
	C343.838104,466.005371 362.885803,455.895477 382.659576,445.973480 
	C383.286011,445.637970 383.912445,445.302429 384.486603,444.929901 
	C384.486603,444.929901 384.458710,444.987518 385.159515,444.985413 
	C385.488708,444.697510 385.817902,444.409637 386.018677,444.001495 
	C386.018677,444.001495 386.154755,444.115417 386.758636,443.804718 
	C388.216797,442.913391 389.674957,442.022095 391.066071,441.104095 
	C391.066071,441.104095 391.088715,441.172546 391.722076,441.023346 
	C392.518524,440.401123 393.314972,439.778900 394.001129,439.000000 
	C394.001129,439.000000 394.108795,439.158386 394.738678,439.018677 
	C395.527374,438.397705 396.316101,437.776733 397.025116,437.048187 
	C397.025116,437.048187 397.120331,437.141724 397.754639,437.022308 
	C398.542419,436.395996 399.330200,435.769684 400.002747,435.018158 
	C400.002747,435.018158 400.107391,435.153137 400.819031,435.015167 
	C402.390411,433.999084 403.961792,432.983002 405.814514,432.016998 
	C406.033234,431.908813 406.084015,431.747711 406.452637,431.034485 
	C407.344635,430.406006 408.236603,429.777527 409.026672,429.054871 
	C409.026672,429.054871 409.106201,429.168701 409.585968,428.954742 
	C409.779907,428.670319 409.973846,428.385925 410.055237,428.027313 
	C410.055237,428.027313 410.148132,428.124908 410.708160,427.846313 
	C411.507904,427.285797 412.307678,426.725311 413.002441,426.000000 
	C413.002441,426.000000 413.104645,426.165131 413.586365,425.954193 
	C413.781464,425.669830 413.976562,425.385498 414.222504,425.101318 
	C414.222504,425.101318 414.220215,425.050507 414.809937,424.764313 
	C427.392975,414.403687 439.333160,403.405884 449.093506,390.205261 
	C449.093506,390.205261 449.099548,390.168793 449.576355,389.946381 
	C449.773193,389.662750 449.970032,389.379120 450.008545,389.000000 
	C450.008545,389.000000 450.170532,389.095154 450.745453,388.811005 
	C451.529694,387.597992 452.313965,386.385010 452.998688,385.011444 
	C452.998688,385.011444 453.100189,385.167419 453.582520,384.956573 
	C453.778229,384.672455 453.973907,384.388367 454.012634,383.998474 
	C454.012634,383.998474 454.174438,384.102264 454.736694,383.821014 
	C455.206360,382.920227 455.676025,382.019440 456.177979,381.109711 
	C456.177979,381.109711 456.186188,381.077240 456.800812,380.757294 
	C457.924133,378.481110 459.047455,376.204926 460.803925,373.683350 
	C467.477448,361.996643 475.004700,350.699585 480.569122,338.506744 
	C485.505768,327.689362 488.508484,315.950317 491.919312,304.485535 
	C496.217926,290.036713 498.919739,275.271484 499.810608,259.693512 
	C499.872955,252.258087 500.002258,244.822189 499.949799,237.387573 
	C499.936951,235.565002 499.330017,233.746613 498.978607,231.015793 
	C498.316010,224.334564 498.093353,217.573105 496.892639,210.990036 
	C494.848389,199.782288 493.103302,188.389206 489.594604,177.607040 
	C482.672272,156.334824 472.250397,136.624237 459.961365,117.253113 
	C458.705017,115.144989 457.448700,113.036873 456.196320,110.868225 
	C456.196320,110.868225 456.135773,110.871208 455.852142,110.307266 
	C455.287872,109.501274 454.723633,108.695290 454.020294,107.992447 
	C454.020294,107.992447 454.168793,107.902931 453.951691,107.421188 
	C453.666656,107.224319 453.381592,107.027458 453.096405,106.902557 
	C453.096405,106.902557 453.168365,106.902260 452.951172,106.420319 
	C452.665436,106.224411 452.379700,106.028503 452.064819,105.906181 
	C452.064819,105.906181 452.134583,105.868782 451.852417,105.303780 
	C451.290100,104.499390 450.727783,103.695007 450.004883,102.992928 
	C450.004883,102.992928 450.169922,102.898941 449.950623,102.419983 
	C449.666290,102.223793 449.381989,102.027603 449.097076,101.901886 
	C449.097076,101.901886 449.167572,101.901070 448.950836,101.420868 
	C448.666626,101.224541 448.382385,101.028221 448.060486,100.838226 
	C448.060486,100.838226 448.068604,100.800865 447.769806,100.204239 
	C445.578674,97.779793 443.387543,95.355347 441.149261,92.952736 
	C441.149261,92.952736 441.168060,92.904388 440.951111,92.422569 
	C440.666351,92.225075 440.381622,92.027573 440.014618,91.998108 
	C440.014618,91.998108 440.103882,91.830910 440.023438,91.168503 
	C438.749573,89.756493 437.475708,88.344482 436.184052,86.913422 
	C436.184052,86.913422 436.165253,86.895348 435.957672,86.411957 
	C435.671936,86.219986 435.386169,86.028008 435.098175,85.904518 
	C435.098175,85.904518 435.166565,85.899986 434.941284,85.427971 
	C434.660706,85.229645 434.380157,85.031311 434.095703,84.901863 
	C434.095703,84.901863 434.164673,84.900429 433.959961,84.415916 
	C433.675903,84.221191 433.391846,84.026474 433.102661,83.899239 
	C433.102661,83.899239 433.170166,83.894485 432.958740,83.412964 
	C432.674347,83.218544 432.389984,83.024124 432.100555,82.931274 
	C432.100555,82.931274 432.202148,82.935974 431.915131,82.354416 
	C431.600189,82.058914 431.285278,81.763412 431.017578,81.185326 
	C430.909271,80.966988 430.747559,80.915161 430.026672,80.528191 
	C428.406250,79.317917 426.785797,78.107651 425.006104,76.992790 
	C425.006104,76.992790 425.170105,76.906593 424.954224,76.426056 
	C424.671143,76.228470 424.388062,76.030876 424.099304,75.900665 
	C424.099304,75.900665 424.166779,75.896156 423.958435,75.412994 
	C423.673309,75.219734 423.388184,75.026474 423.098480,74.792862 
	C423.098480,74.792862 423.057983,74.789848 422.772400,74.209587 
	C420.903595,72.771988 419.034760,71.334389 417.009857,69.984787 
	C417.009857,69.984787 417.171783,69.909523 416.952728,69.424103 
	C416.665436,69.225693 416.378174,69.027283 416.090729,68.909294 
	C416.090729,68.909294 416.171173,68.909126 415.952576,68.424171 
	C415.666199,68.224869 415.379791,68.025574 415.092407,67.907776 
	C415.092407,67.907776 415.173920,67.908401 414.964447,67.422684 
	C414.679626,67.226364 414.394806,67.030045 413.996277,66.952454 
	C413.996277,66.952454 414.101257,66.822479 413.821533,66.258583 
	C412.920532,65.789581 412.019562,65.320580 411.000061,64.982384 
	C411.000061,64.982384 411.113037,64.844383 410.799133,64.233452 
	C409.517731,63.311321 408.236328,62.389191 407.006561,61.189339 
	C406.898804,60.972679 406.739502,60.923744 406.062469,60.586124 
	C405.726349,60.323875 405.390259,60.061626 405.047119,59.867123 
	C405.047119,59.867123 405.109558,59.839912 404.825867,59.279316 
	C403.926331,58.805878 403.026794,58.332436 402.128296,57.809948 
	C402.128296,57.809948 402.079224,57.810169 401.780029,57.199329 
	C391.244659,51.099777 380.709290,45.000225 370.172729,38.802719 
	C370.172729,38.802719 370.074768,38.803097 369.730682,38.182354 
	C362.963654,35.057972 356.369781,31.450628 349.380890,28.945166 
	C342.404999,26.444376 335.033447,25.047276 327.047272,23.010204 
	C326.383392,22.983692 325.678772,23.094152 325.061676,22.910458 
	C312.472931,19.163235 299.740204,16.373800 286.525604,15.927542 
	C281.348846,15.752722 276.203339,14.651416 270.627014,13.200191 
	C262.889252,13.132190 255.151169,13.001444 247.414001,13.042461 
	C245.590958,13.052126 243.770981,13.640654 241.037613,14.004080 
	C237.589798,14.228329 234.109329,14.227079 230.700470,14.720504 
	C221.666733,16.028116 212.633728,17.386045 203.659561,19.044058 
	C197.779236,20.130476 192.001877,21.774157 185.300003,23.013147 
	C183.992615,23.086432 182.571945,22.850929 181.395935,23.282341 
	C172.754105,26.452536 163.980820,29.354624 155.599121,33.120560 
	C145.413391,37.697060 135.438538,42.795116 125.635727,48.149536 
	C120.763908,50.810585 116.480263,54.548435 111.832092,57.799881 
	C111.832092,57.799881 111.832047,57.898335 111.260139,58.185429 
	C110.140831,59.066101 109.021523,59.946777 108.001671,60.984333 
	C108.001671,60.984333 107.900337,60.832779 107.419106,61.049137 
	C107.224258,61.334740 107.029411,61.620342 106.910194,61.937843 
	C106.910194,61.937843 106.869049,61.866810 106.307724,62.151436 
	C105.503906,62.709740 104.700081,63.268040 104.003868,63.962170 
	C104.003868,63.962170 103.889145,63.836159 103.410347,64.054054 
	C103.215599,64.339409 103.020851,64.624771 102.904953,64.909760 
	C102.904953,64.909760 102.904205,64.830902 102.420067,65.048141 
	C102.224571,65.335609 102.029083,65.623077 101.900284,65.925667 
	C101.900284,65.925667 101.877991,65.861015 101.314117,66.149498 
	C100.505760,66.713585 99.697411,67.277672 98.991264,67.973442 
	C98.991264,67.973442 98.904503,67.830772 98.421242,68.047646 
	C98.224106,68.333534 98.026978,68.619415 97.902878,68.905281 
	C97.902878,68.905281 97.902451,68.832245 97.417694,69.049416 
	C97.220581,69.336761 97.023468,69.624107 96.991066,69.983795 
	C96.991066,69.983795 96.831566,69.898918 96.153297,69.979851 
	C94.083092,71.914963 92.012894,73.850075 89.892937,75.784531 
	C89.892937,75.784531 89.893997,75.834282 89.415253,76.053993 
	C89.219841,76.339249 89.024429,76.624504 88.985588,76.992752 
	C88.985588,76.992752 88.836349,76.897339 88.229294,77.206497 
	C86.641998,78.480965 85.054710,79.755432 83.184731,80.983261 
	C82.966614,81.091835 82.914856,81.253624 82.498695,81.978233 
	C82.155434,82.328758 81.812172,82.679283 81.186356,82.982567 
	C80.968018,83.090706 80.915970,83.252380 80.583488,83.937851 
	C80.324318,84.273552 80.065147,84.609245 79.907974,84.938957 
	C79.907974,84.938957 79.901672,84.836967 79.427368,85.058662 
	C79.230179,85.340218 79.032997,85.621773 78.904579,85.906662 
	C78.904579,85.906662 78.902260,85.837845 78.422531,86.050598 
	C78.226776,86.333542 78.031021,86.616486 77.893677,86.981789 
	C77.893677,86.981789 77.814491,86.917915 77.234482,87.202713 
	C76.447090,88.419899 75.659698,89.637093 74.953842,90.925636 
	C74.953842,90.925636 74.903854,90.829506 74.415863,91.039284 
	C74.219673,91.326508 74.023483,91.613724 73.901741,91.901237 
	C73.901741,91.901237 73.901604,91.826790 73.416122,92.038780 
	C73.221428,92.325562 73.026741,92.612343 72.808502,92.913933 
	C72.808502,92.913933 72.794273,92.937836 72.211090,93.224220 
	C70.117813,95.751343 68.024536,98.278465 65.947647,100.850121 
	C65.947647,100.850121 65.903053,100.834053 65.421371,101.048187 
	C65.224937,101.332474 65.028511,101.616760 64.902077,101.902344 
	C64.902077,101.902344 64.900772,101.832344 64.420334,102.048592 
	C64.223175,102.332428 64.026016,102.616264 63.989532,102.992561 
	C63.989532,102.992561 63.835442,102.889397 63.270878,103.165222 
	C62.803135,104.063965 62.335392,104.962700 61.947262,105.917831 
	C61.947262,105.917831 61.900902,105.831993 61.420052,106.048180 
	C61.223827,106.332710 61.027603,106.617241 60.978546,107.003044 
	C60.978546,107.003044 60.825024,106.904457 60.243217,107.190308 
	C59.456459,108.407349 58.669701,109.624397 57.806969,110.843086 
	C57.806969,110.843086 57.807892,110.919075 57.204880,111.213120 
	C56.085423,113.105553 54.965965,114.997986 53.984840,116.999596 
	C53.984840,116.999596 53.840019,116.896797 53.225979,117.219955 
	C53.160660,118.133316 53.095345,119.046669 52.357319,120.164337 
	C45.512085,131.482849 37.749939,142.281906 33.492836,155.029465 
	C29.803185,166.077805 25.493387,176.925629 22.018696,188.037506 
	C17.562679,202.287598 15.325350,216.975174 14.219589,232.342682 
	C14.147041,239.793686 14.006361,247.245102 14.050577,254.695419 
	C14.061425,256.523254 14.676315,258.347473 15.004608,261.065125 
	C15.336740,264.822052 15.369216,268.634552 16.054176,272.326019 
	C18.669914,286.423004 20.930916,300.624420 24.453596,314.500153 
	C26.589275,322.912567 30.255184,331.074310 34.204437,338.855988 
	C40.076355,350.426208 46.807308,361.560425 53.042313,373.516846 
	C53.294052,374.032684 53.545788,374.548553 53.809742,375.091064 
	C53.809742,375.091064 53.836021,375.104034 53.979061,375.734131 
	C54.599361,376.524048 55.219662,377.313934 55.864624,378.040924 
	C55.864624,378.040924 55.797489,378.048859 55.980316,378.649475 
	C56.268490,379.137604 56.556664,379.625702 56.946186,380.014740 
	C56.946186,380.014740 56.827309,380.092255 57.052761,380.573395 
	C57.338989,380.772491 57.625217,380.971558 57.918373,381.104675 
	C57.918373,381.104675 57.852879,381.115295 58.134769,381.682220 
	C58.698704,382.488861 59.262638,383.295532 59.881588,384.032654 
	C59.881588,384.032654 59.797691,384.061371 60.089153,384.641907 
	C60.404095,384.938416 60.719036,385.234955 60.983208,385.813202 
	C60.983208,385.813202 61.185448,386.015778 61.185448,386.015778 
	C61.185448,386.015778 61.467190,385.965210 61.960724,386.456757 
	C62.591930,387.346130 63.223137,388.235474 63.943508,389.025482 
	C63.943508,389.025482 63.834000,389.101990 64.056725,389.576691 
	C64.338730,389.774475 64.620735,389.972290 64.903664,390.099365 
	C64.903664,390.099365 64.832939,390.099304 65.044800,390.581696 
z"/>
<path fill="#B97A58" opacity="1.000000" stroke="none" 
	d="
M499.033447,260.122040 
	C498.919739,275.271484 496.217926,290.036713 491.919312,304.485535 
	C488.508484,315.950317 485.505768,327.689362 480.569122,338.506744 
	C475.004700,350.699585 467.477448,361.996643 460.131287,373.906067 
	C458.367798,376.444946 457.276978,378.761078 456.186188,381.077240 
	C456.186188,381.077240 456.177979,381.109711 455.778748,380.848450 
	C454.977844,381.758881 454.576141,382.930573 454.174438,384.102264 
	C454.174438,384.102264 454.012634,383.998474 453.678162,383.841034 
	C453.262512,384.178192 453.181335,384.672821 453.100159,385.167419 
	C453.100189,385.167419 452.998688,385.011444 452.798889,384.712402 
	C451.789551,385.973969 450.980011,387.534546 450.170532,389.095154 
	C450.170532,389.095154 450.008545,389.000000 449.676208,388.854187 
	C449.262421,389.195160 449.181000,389.681976 449.099548,390.168793 
	C449.099548,390.168793 449.093506,390.205261 448.942993,389.800781 
	C447.997803,389.922455 447.050507,390.311127 446.432709,390.996704 
	C441.694031,396.255280 437.265717,401.819244 432.257050,406.801910 
	C427.019379,412.012421 421.196411,416.630798 415.750580,421.639954 
	C414.907806,422.415100 414.714081,423.895966 414.220215,425.050507 
	C414.220215,425.050507 414.222504,425.101318 413.778656,424.898621 
	C413.258087,425.185669 413.181366,425.675415 413.104645,426.165131 
	C413.104645,426.165131 413.002441,426.000000 412.766174,425.695923 
	C411.735992,426.302856 410.942047,427.213867 410.148132,428.124908 
	C410.148132,428.124908 410.055237,428.027313 409.694641,427.854889 
	C409.258057,428.177887 409.182129,428.673279 409.106201,429.168701 
	C409.106201,429.168701 409.026672,429.054871 408.720276,428.744995 
	C407.598175,429.467987 406.782501,430.500824 405.966797,431.533661 
	C406.084015,431.747711 406.033234,431.908813 405.384369,431.617004 
	C403.338623,432.529083 401.723022,433.841125 400.107391,435.153137 
	C400.107391,435.153137 400.002747,435.018158 399.754150,434.753113 
	C398.710480,435.372620 397.915405,436.257172 397.120361,437.141724 
	C397.120331,437.141724 397.025116,437.048187 396.790894,436.742981 
	C395.740723,437.344635 394.924774,438.251526 394.108826,439.158386 
	C394.108795,439.158386 394.001129,439.000000 393.780029,438.735687 
	C392.735504,439.371765 391.912140,440.272186 391.088745,441.172546 
	C391.088715,441.172546 391.066071,441.104095 390.775970,440.838226 
	C389.042175,441.753387 387.598450,442.934387 386.154724,444.115417 
	C386.154755,444.115417 386.018677,444.001495 385.723541,443.808655 
	C385.105164,444.073059 384.781921,444.530273 384.458679,444.987488 
	C384.458710,444.987518 384.486603,444.929901 384.202759,444.672668 
	C383.254639,444.868591 382.590363,445.321747 381.926086,445.774872 
	C362.885803,455.895477 343.838104,466.005371 322.327728,470.053375 
	C309.881775,472.395508 297.425659,474.683655 284.071320,476.990173 
	C279.551025,477.023712 275.933533,477.063171 271.823975,477.081848 
	C261.448883,477.074066 251.565842,477.087067 241.240570,477.094299 
	C237.168106,477.066071 233.537918,477.043671 229.907715,477.021240 
	C214.922913,475.967010 200.454269,472.464081 185.927124,468.740570 
	C167.195404,463.939362 150.298553,455.224579 132.922089,445.956665 
	C131.014450,444.937225 129.462646,444.557800 127.910843,444.178375 
	C127.910843,444.178375 127.854980,444.182556 128.161987,443.856903 
	C126.602165,442.731384 124.735344,441.931519 122.868530,441.131653 
	C122.868530,441.131653 122.935684,441.103943 123.089882,440.739624 
	C122.125305,439.967621 121.006531,439.559937 119.887756,439.152283 
	C119.887756,439.152283 119.999611,439.020081 120.156387,438.702332 
	C119.173370,437.974579 118.033585,437.564575 116.893799,437.154541 
	C116.893799,437.154541 116.996246,437.015747 117.187424,436.718445 
	C116.213051,435.994873 115.047508,435.568542 113.881958,435.142242 
	C113.881958,435.142242 113.957886,435.090820 114.094101,434.725769 
	C113.122208,433.965698 112.014084,433.570740 110.905968,433.175751 
	C110.905968,433.175751 110.880371,433.162445 111.181999,432.786865 
	C110.286537,431.996918 109.089447,431.582520 107.892357,431.168121 
	C107.892357,431.168121 107.994934,431.002441 108.149353,430.674377 
	C107.812881,430.263855 107.321999,430.181366 106.831108,430.098907 
	C106.831108,430.098907 106.897026,430.090881 107.147575,429.706848 
	C106.087517,428.870270 104.776917,428.417725 103.466316,427.965210 
	C103.466316,427.965210 103.185432,428.016479 103.185432,428.016479 
	C103.185432,428.016479 102.983521,427.814606 103.313416,427.270905 
	C102.387184,426.201660 101.131050,425.676117 99.874908,425.150574 
	C99.874908,425.150574 99.976044,425.055420 100.146820,424.697083 
	C99.823044,424.259460 99.328499,424.180206 98.833946,424.100952 
	C98.833946,424.100952 98.775146,424.101776 99.202957,423.968628 
	C95.176910,419.760864 90.731422,415.676849 86.231705,411.653503 
	C86.085922,411.523132 85.386078,412.012390 84.944519,412.212830 
	C84.944519,412.212830 85.016258,412.089111 85.079193,411.630920 
	C84.584038,411.103851 84.025932,411.034973 83.467834,410.966125 
	C83.467834,410.966125 83.185760,411.016510 83.185760,411.016510 
	C83.185760,411.016510 82.983208,410.813843 83.267212,410.215942 
	C82.968521,409.431763 82.385834,409.245514 81.803146,409.059265 
	C81.803146,409.059265 81.908234,409.064423 82.100845,408.708923 
	C81.805359,408.267273 81.317253,408.181091 80.829147,408.094910 
	C80.829155,408.094879 80.904076,408.093994 81.098755,407.719238 
	C80.805290,407.262939 80.317154,407.181396 79.829018,407.099823 
	C79.829018,407.099823 79.901794,407.099487 80.099121,406.718597 
	C79.808182,406.259857 79.319908,406.181976 78.831635,406.104126 
	C78.831635,406.104126 78.770462,406.105713 79.197289,405.971802 
	C75.347260,400.729492 71.070511,395.621033 66.759010,390.542084 
	C66.756653,390.539276 66.229027,390.982361 65.946762,391.217133 
	C65.946754,391.217133 65.898285,391.218323 66.106522,390.780396 
	C65.820816,390.261444 65.326874,390.180359 64.832939,390.099304 
	C64.832939,390.099304 64.903664,390.099365 65.101486,389.718018 
	C64.810867,389.258453 64.322433,389.180206 63.834000,389.101990 
	C63.834000,389.101990 63.943508,389.025482 64.259262,388.721863 
	C63.539066,387.600555 62.503124,386.782898 61.467186,385.965210 
	C61.467190,385.965210 61.185448,386.015778 61.185448,386.015778 
	C61.185448,386.015778 60.983208,385.813202 61.262630,385.215454 
	C60.960602,384.432251 60.379147,384.246796 59.797691,384.061371 
	C59.797691,384.061371 59.881588,384.032654 60.244705,383.804016 
	C59.689507,382.755341 58.771194,381.935333 57.852879,381.115295 
	C57.852879,381.115295 57.918373,381.104675 58.087612,380.732208 
	C57.780334,380.270569 57.303822,380.181427 56.827309,380.092255 
	C56.827309,380.092255 56.946186,380.014740 57.250473,379.770508 
	C56.969006,379.033813 56.383247,378.541351 55.797485,378.048859 
	C55.797489,378.048859 55.864624,378.040924 56.212418,377.808350 
	C55.652149,376.751862 54.744087,375.927948 53.836025,375.104034 
	C53.836021,375.104034 53.809742,375.091064 54.184395,374.931702 
	C54.096924,374.141663 53.634796,373.510925 53.172676,372.880219 
	C46.807308,361.560425 40.076355,350.426208 34.204437,338.855988 
	C30.255184,331.074310 26.589275,322.912567 24.453596,314.500153 
	C20.930916,300.624420 18.669914,286.423004 16.054176,272.326019 
	C15.369216,268.634552 15.336740,264.822052 15.024405,260.138428 
	C15.029744,250.117035 15.015286,241.022324 15.000830,231.927628 
	C15.325350,216.975174 17.562679,202.287598 22.018696,188.037506 
	C25.493387,176.925629 29.803185,166.077805 33.492836,155.029465 
	C37.749939,142.281906 45.512085,131.482849 52.955223,119.792282 
	C53.648758,118.579086 53.744389,117.737938 53.840019,116.896797 
	C53.840019,116.896797 53.984840,116.999596 54.254326,117.149406 
	C55.618504,115.172508 56.713200,113.045792 57.807892,110.919075 
	C57.807892,110.919075 57.806969,110.843086 58.133690,111.187904 
	C59.248611,109.989967 60.036816,108.447212 60.825024,106.904457 
	C60.825024,106.904457 60.978546,107.003044 61.312622,107.141136 
	C61.731430,106.796814 61.816166,106.314407 61.900902,105.831993 
	C61.900902,105.831993 61.947262,105.917831 62.259411,106.201859 
	C62.992851,105.287048 63.414146,104.088219 63.835442,102.889397 
	C63.835442,102.889397 63.989532,102.992561 64.317322,103.135330 
	C64.730339,102.796188 64.815552,102.314262 64.900772,101.832344 
	C64.900772,101.832344 64.902077,101.902344 65.274445,102.093109 
	C65.732224,101.800598 65.817635,101.317329 65.903053,100.834053 
	C65.903053,100.834053 65.947647,100.850121 66.103043,101.216797 
	C67.959015,99.891739 69.786407,98.304825 71.307480,96.464706 
	C72.085976,95.522934 72.316238,94.127975 72.794273,92.937836 
	C72.794273,92.937836 72.808502,92.913933 73.224686,93.101410 
	C73.727783,92.801521 73.814690,92.314156 73.901604,91.826790 
	C73.901604,91.826790 73.901741,91.901237 74.269302,92.084305 
	C74.725868,91.788086 74.814857,91.308800 74.903854,90.829506 
	C74.903854,90.829506 74.953842,90.925636 75.220871,91.198044 
	C76.263428,89.952934 77.038963,88.435425 77.814499,86.917915 
	C77.814491,86.917915 77.893677,86.981789 78.274208,87.140984 
	C78.737244,86.812737 78.819748,86.325287 78.902260,85.837845 
	C78.902260,85.837845 78.904579,85.906662 79.280060,86.098801 
	C79.737595,85.806290 79.819633,85.321625 79.901672,84.836967 
	C79.901672,84.836967 79.907974,84.938957 80.365265,85.025833 
	C80.891769,84.564339 80.960991,84.015961 81.030212,83.467590 
	C80.915970,83.252380 80.968018,83.090706 81.879143,83.179276 
	C82.724442,82.740196 82.876945,82.104424 83.029449,81.468643 
	C82.914856,81.253624 82.966614,81.091835 83.620682,81.372025 
	C85.649872,80.139641 87.243111,78.518494 88.836349,76.897339 
	C88.836349,76.897339 88.985588,76.992752 89.321976,77.121193 
	C89.736908,76.777847 89.815453,76.306068 89.893997,75.834282 
	C89.893997,75.834282 89.892937,75.784531 90.053848,76.193985 
	C92.420364,74.368607 94.625969,72.133759 96.831566,69.898918 
	C96.831566,69.898918 96.991066,69.983795 97.315453,70.107452 
	C97.727379,69.764824 97.814919,69.298538 97.902451,68.832245 
	C97.902451,68.832245 97.902878,68.905281 98.270599,69.082535 
	C98.727051,68.783455 98.815773,68.307114 98.904495,67.830772 
	C98.904503,67.830772 98.991264,67.973442 99.233780,68.264572 
	C100.276855,67.657471 101.077423,66.759247 101.877991,65.861015 
	C101.877991,65.861015 101.900284,65.925667 102.271378,66.089645 
	C102.729713,65.779381 102.816963,65.305145 102.904205,64.830902 
	C102.904205,64.830902 102.904953,64.909760 103.285187,65.076736 
	C103.739998,64.774529 103.814568,64.305344 103.889145,63.836159 
	C103.889145,63.836159 104.003868,63.962170 104.223618,64.281769 
	C105.251930,63.689850 106.060486,62.778328 106.869049,61.866806 
	C106.869049,61.866810 106.910194,61.937843 107.280853,62.107147 
	C107.734459,61.795231 107.817398,61.314003 107.900337,60.832779 
	C107.900337,60.832779 108.001671,60.984333 108.207199,61.285511 
	C109.552498,60.357235 110.692268,59.127785 111.832047,57.898331 
	C111.832047,57.898335 111.832092,57.799881 112.047691,58.199547 
	C114.009209,57.689262 115.770927,56.808266 117.498520,55.864761 
	C130.544800,48.739697 143.353607,41.128197 156.704391,34.629757 
	C166.150650,30.031830 176.327621,26.935114 186.178391,23.168251 
	C192.001877,21.774157 197.779236,20.130476 203.659561,19.044058 
	C212.633728,17.386045 221.666733,16.028116 230.700470,14.720504 
	C234.109329,14.227079 237.589798,14.228329 241.964813,13.990965 
	C252.275879,13.975920 261.659729,13.973990 271.043610,13.972061 
	C276.203339,14.651416 281.348846,15.752722 286.525604,15.927542 
	C299.740204,16.373800 312.472931,19.163235 325.061676,22.910458 
	C325.678772,23.094152 326.383392,22.983692 327.674255,23.371946 
	C341.139984,28.696842 353.971069,33.680199 366.833008,38.582584 
	C367.800995,38.951538 368.989014,38.743118 370.074768,38.803097 
	C370.074768,38.803097 370.172729,38.802719 369.829529,39.069374 
	C379.859863,45.664047 390.228455,52.000240 400.632996,58.276962 
	C400.917603,58.448677 401.588470,57.980145 402.079224,57.810173 
	C402.079224,57.810169 402.128296,57.809948 401.847961,58.202061 
	C402.748260,59.009418 403.928894,59.424664 405.109558,59.839912 
	C405.109558,59.839912 405.047119,59.867123 404.976868,60.334702 
	C405.447327,60.882362 405.988007,60.962448 406.528687,61.042534 
	C406.739502,60.923744 406.898804,60.972679 406.677063,61.685059 
	C407.936096,63.068638 409.524567,63.956505 411.113037,64.844376 
	C411.113037,64.844383 411.000061,64.982384 410.804901,65.300949 
	C411.773590,66.020508 412.937408,66.421494 414.101257,66.822479 
	C414.101257,66.822479 413.996277,66.952454 413.838989,67.291206 
	C414.179077,67.722771 414.676514,67.815590 415.173920,67.908401 
	C415.173920,67.908401 415.092407,67.907776 414.923737,68.267365 
	C415.227112,68.721008 415.699127,68.815063 416.171173,68.909119 
	C416.171173,68.909126 416.090729,68.909294 415.924622,69.268631 
	C416.229584,69.721825 416.700684,69.815674 417.171783,69.909523 
	C417.171783,69.909523 417.009857,69.984787 416.746368,70.177856 
	C418.674591,71.843903 420.866272,73.316872 423.057983,74.789841 
	C423.057983,74.789848 423.098480,74.792862 422.894592,75.225739 
	C423.182739,75.737801 423.674774,75.816978 424.166779,75.896156 
	C424.166779,75.896156 424.099304,75.900665 423.897217,76.268723 
	C424.186768,76.726723 424.678436,76.816658 425.170105,76.906593 
	C425.170105,76.906593 425.006104,76.992790 424.726440,77.207169 
	C426.475311,78.624313 428.503906,79.827080 430.532471,81.029846 
	C430.747559,80.915161 430.909271,80.966988 430.737061,81.780670 
	C431.038422,82.562668 431.620270,82.749321 432.202148,82.935974 
	C432.202148,82.935974 432.100555,82.931274 431.898682,83.292221 
	C432.187897,83.733604 432.679047,83.814049 433.170166,83.894485 
	C433.170166,83.894485 433.102661,83.899239 432.893341,84.275925 
	C433.177582,84.735214 433.671112,84.817818 434.164673,84.900429 
	C434.164673,84.900429 434.095703,84.901863 433.900787,85.277275 
	C434.192780,85.735123 434.679657,85.817551 435.166565,85.899986 
	C435.166565,85.899986 435.098175,85.904518 434.892609,86.284561 
	C435.179779,86.741516 435.672516,86.818428 436.165253,86.895340 
	C436.165253,86.895348 436.184052,86.913422 435.783142,87.090157 
	C436.956085,88.788231 438.529999,90.309570 440.103882,91.830910 
	C440.103882,91.830910 440.014618,91.998108 439.871704,92.319366 
	C440.208557,92.728546 440.688324,92.816467 441.168060,92.904388 
	C441.168060,92.904388 441.149261,92.952736 440.782715,93.107399 
	C442.966980,95.775002 445.517792,98.287941 448.068604,100.800873 
	C448.068604,100.800865 448.060486,100.838226 447.888458,101.243332 
	C448.200134,101.732651 448.683868,101.816864 449.167572,101.901070 
	C449.167572,101.901070 449.097076,101.901886 448.908081,102.275551 
	C449.202728,102.732452 449.686310,102.815697 450.169922,102.898941 
	C450.169922,102.898941 450.004883,102.992928 449.713196,103.229492 
	C450.325836,104.266960 451.230225,105.067871 452.134583,105.868782 
	C452.134583,105.868782 452.064819,105.906181 451.896606,106.276276 
	C452.208374,106.731674 452.688354,106.816971 453.168365,106.902267 
	C453.168365,106.902260 453.096405,106.902557 452.912415,107.272705 
	C453.208557,107.729546 453.688690,107.816238 454.168793,107.902931 
	C454.168793,107.902931 454.020294,107.992447 453.725891,108.236511 
	C454.332886,109.277451 455.234314,110.074333 456.135773,110.871216 
	C456.135773,110.871208 456.196320,110.868225 455.815125,111.063873 
	C456.899414,113.506805 458.364838,115.754097 459.830261,118.001373 
	C472.250397,136.624237 482.672272,156.334824 489.594604,177.607040 
	C493.103302,188.389206 494.848389,199.782288 496.892639,210.990036 
	C498.093353,217.573105 498.316010,224.334564 498.984863,231.944763 
	C499.005249,241.956497 499.019348,251.039261 499.033447,260.122040 
M238.377609,321.499756 
	C238.377609,333.588348 238.377609,345.676941 238.377609,357.753540 
	C247.595200,357.753540 255.970032,357.753540 264.997070,357.753540 
	C264.997070,321.773499 264.997070,286.260742 264.997070,249.745514 
	C266.545227,251.174683 267.318146,251.749664 267.922974,252.466431 
	C295.204865,284.797974 322.693146,316.960144 349.557281,349.635437 
	C355.032745,356.295319 360.548065,359.090576 368.927521,358.379517 
	C376.613220,357.727295 384.397827,358.240997 393.706879,358.240997 
	C358.990540,318.901123 325.350342,280.780701 291.478058,242.397293 
	C323.257263,206.831238 354.677368,171.667114 386.097473,136.502975 
	C385.873535,136.102661 385.649628,135.702347 385.425720,135.302032 
	C377.003693,135.302032 368.575226,135.496613 360.162415,135.217957 
	C356.104797,135.083557 353.387878,136.450500 350.779419,139.515793 
	C327.462189,166.916214 304.013153,194.204468 280.593536,221.517700 
	C275.699890,227.224930 270.767792,232.899155 265.853424,238.588577 
	C264.797363,225.995483 264.799286,213.877014 264.796906,201.758545 
	C264.792908,181.263092 264.685394,160.766724 264.867157,140.272934 
	C264.902771,136.258041 263.636993,134.974686 259.728271,135.212082 
	C255.080124,135.494385 250.401138,135.262558 245.735519,135.265594 
	C238.353424,135.270386 238.351089,135.274658 238.352081,142.539154 
	C238.360092,201.859344 238.369080,261.179535 238.377609,321.499756 
M153.212006,172.499908 
	C153.212006,234.222595 153.212006,295.945282 153.212006,358.228851 
	C160.231415,358.228851 166.526230,358.234375 172.821045,358.227325 
	C179.662613,358.219666 179.683563,358.214600 179.684677,351.536743 
	C179.691528,310.072754 179.688950,268.608734 179.688019,227.144730 
	C179.687393,198.336411 179.625656,169.527817 179.750870,140.720047 
	C179.768051,136.764740 178.817459,134.940262 174.487473,135.186920 
	C168.843689,135.508438 163.163971,135.413986 157.508408,135.230560 
	C154.275253,135.125702 153.120178,136.237183 153.167694,139.528519 
	C153.321533,150.183640 153.217026,160.842484 153.212006,172.499908 
z"/>
<path fill="#FCF3E9" opacity="1.000000" stroke="none" 
	d="
M185.739197,23.090698 
	C176.327621,26.935114 166.150650,30.031830 156.704391,34.629757 
	C143.353607,41.128197 130.544800,48.739697 117.498520,55.864761 
	C115.770927,56.808266 114.009209,57.689262 112.096916,58.199181 
	C116.480263,54.548435 120.763908,50.810585 125.635727,48.149536 
	C135.438538,42.795116 145.413391,37.697060 155.599121,33.120560 
	C163.980820,29.354624 172.754105,26.452536 181.395935,23.282341 
	C182.571945,22.850929 183.992615,23.086432 185.739197,23.090698 
z"/>
<path fill="#FEF6ED" opacity="1.000000" stroke="none" 
	d="
M414.515076,424.907410 
	C414.714081,423.895966 414.907806,422.415100 415.750580,421.639954 
	C421.196411,416.630798 427.019379,412.012421 432.257050,406.801910 
	C437.265717,401.819244 441.694031,396.255280 446.432709,390.996704 
	C447.050507,390.311127 447.997803,389.922455 448.924744,389.803833 
	C439.333160,403.405884 427.392975,414.403687 414.515076,424.907410 
z"/>
<path fill="#FDF3E9" opacity="1.000000" stroke="none" 
	d="
M369.902710,38.492725 
	C368.989014,38.743118 367.800995,38.951538 366.833008,38.582584 
	C353.971069,33.680199 341.139984,28.696842 328.068298,23.449997 
	C335.033447,25.047276 342.404999,26.444376 349.380890,28.945166 
	C356.369781,31.450628 362.963654,35.057972 369.902710,38.492725 
z"/>
<path fill="#FDF3E9" opacity="1.000000" stroke="none" 
	d="
M401.929626,57.504753 
	C401.588470,57.980145 400.917603,58.448677 400.632996,58.276962 
	C390.228455,52.000240 379.859863,45.664047 369.830078,39.118347 
	C380.709290,45.000225 391.244659,51.099777 401.929626,57.504753 
z"/>
<path fill="#DEC2AF" opacity="1.000000" stroke="none" 
	d="
M272.316010,477.102631 
	C275.933533,477.063171 279.551025,477.023712 283.629395,477.003784 
	C279.026642,477.683014 273.977966,478.712372 268.896088,478.917236 
	C260.933746,479.238220 252.945511,479.143311 244.974930,478.949890 
	C240.078934,478.831055 235.195343,478.200531 230.106949,477.410522 
	C233.537918,477.043671 237.168106,477.066071 241.596542,477.355591 
	C247.162857,477.745941 251.934113,478.036987 256.698181,477.947327 
	C261.907593,477.849304 267.110352,477.399231 272.316010,477.102631 
z"/>
<path fill="#FEF8ED" opacity="1.000000" stroke="none" 
	d="
M66.094566,391.516052 
	C66.229027,390.982361 66.756653,390.539276 66.759010,390.542084 
	C71.070511,395.621033 75.347260,400.729492 79.199860,405.941284 
	C74.597855,401.301483 70.420105,396.558228 66.094566,391.516052 
z"/>
<path fill="#FEF8ED" opacity="1.000000" stroke="none" 
	d="
M85.091721,412.511963 
	C85.386078,412.012390 86.085922,411.523132 86.231705,411.653503 
	C90.731422,415.676849 95.176910,419.760864 99.205910,423.939392 
	C94.267014,420.299194 89.752975,416.555115 85.091721,412.511963 
z"/>
<path fill="#D8AD9B" opacity="1.000000" stroke="none" 
	d="
M270.835327,13.586126 
	C261.659729,13.973990 252.275879,13.975920 242.420807,13.970367 
	C243.770981,13.640654 245.590958,13.052126 247.414001,13.042461 
	C255.151169,13.001444 262.889252,13.132190 270.835327,13.586126 
z"/>
<path fill="#CAAD9D" opacity="1.000000" stroke="none" 
	d="
M14.610209,232.135162 
	C15.015286,241.022324 15.029744,250.117035 15.028851,259.692566 
	C14.676315,258.347473 14.061425,256.523254 14.050577,254.695419 
	C14.006361,247.245102 14.147041,239.793686 14.610209,232.135162 
z"/>
<path fill="#CAAD9D" opacity="1.000000" stroke="none" 
	d="
M499.422028,259.907776 
	C499.019348,251.039261 499.005249,241.956497 498.993683,232.400009 
	C499.330017,233.746613 499.936951,235.565002 499.949799,237.387573 
	C500.002258,244.822189 499.872955,252.258087 499.422028,259.907776 
z"/>
<path fill="#FCF3E9" opacity="1.000000" stroke="none" 
	d="
M72.502686,93.081024 
	C72.316238,94.127975 72.085976,95.522934 71.307480,96.464706 
	C69.786407,98.304825 67.959015,99.891739 66.094849,101.194534 
	C68.024536,98.278465 70.117813,95.751343 72.502686,93.081024 
z"/>
<path fill="#FDF3E9" opacity="1.000000" stroke="none" 
	d="
M447.919189,100.502563 
	C445.517792,98.287941 442.966980,95.775002 440.806305,93.096481 
	C443.387543,95.355347 445.578674,97.779793 447.919189,100.502563 
z"/>
<path fill="#FCF3E9" opacity="1.000000" stroke="none" 
	d="
M96.492432,69.939384 
	C94.625969,72.133759 92.420364,74.368607 90.078735,76.194321 
	C92.012894,73.850075 94.083092,71.914963 96.492432,69.939384 
z"/>
<path fill="#FDF3E9" opacity="1.000000" stroke="none" 
	d="
M422.915192,74.499710 
	C420.866272,73.316872 418.674591,71.843903 416.824402,70.133865 
	C419.034760,71.334389 420.903595,72.771988 422.915192,74.499710 
z"/>
<path fill="#FDF3E9" opacity="1.000000" stroke="none" 
	d="
M459.895813,117.627243 
	C458.364838,115.754097 456.899414,113.506805 455.813171,111.094139 
	C457.448700,113.036873 458.705017,115.144989 459.895813,117.627243 
z"/>
<path fill="#FCF3E9" opacity="1.000000" stroke="none" 
	d="
M57.506386,111.066101 
	C56.713200,113.045792 55.618504,115.172508 54.185158,117.094818 
	C54.965965,114.997986 56.085423,113.105553 57.506386,111.066101 
z"/>
<path fill="#FEF6ED" opacity="1.000000" stroke="none" 
	d="
M456.493500,380.917267 
	C457.276978,378.761078 458.367798,376.444946 459.814697,374.028748 
	C459.047455,376.204926 457.924133,378.481110 456.493500,380.917267 
z"/>
<path fill="#FDF3E9" opacity="1.000000" stroke="none" 
	d="
M440.063660,91.499710 
	C438.529999,90.309570 436.956085,88.788231 435.792053,87.099686 
	C437.475708,88.344482 438.749573,89.756493 440.063660,91.499710 
z"/>
<path fill="#FEF8ED" opacity="1.000000" stroke="none" 
	d="
M123.021347,441.437927 
	C124.735344,441.931519 126.602165,442.731384 128.162781,443.828918 
	C126.295784,443.332458 124.734970,442.538361 123.021347,441.437927 
z"/>
<path fill="#FEF6ED" opacity="1.000000" stroke="none" 
	d="
M400.463196,435.084167 
	C401.723022,433.841125 403.338623,432.529083 405.243683,431.591980 
	C403.961792,432.983002 402.390411,433.999084 400.463196,435.084167 
z"/>
<path fill="#FCF3E9" opacity="1.000000" stroke="none" 
	d="
M88.532822,77.051918 
	C87.243111,78.518494 85.649872,80.139641 83.762024,81.395348 
	C85.054710,79.755432 86.641998,78.480965 88.532822,77.051918 
z"/>
<path fill="#FDF3E9" opacity="1.000000" stroke="none" 
	d="
M430.279572,80.779022 
	C428.503906,79.827080 426.475311,78.624313 424.806061,77.159470 
	C426.785797,78.107651 428.406250,79.317917 430.279572,80.779022 
z"/>
<path fill="#FCF3E9" opacity="1.000000" stroke="none" 
	d="
M60.534119,107.047379 
	C60.036816,108.447212 59.248611,109.989967 58.171677,111.187080 
	C58.669701,109.624397 59.456459,108.407349 60.534119,107.047379 
z"/>
<path fill="#FCF3E9" opacity="1.000000" stroke="none" 
	d="
M77.524490,87.060318 
	C77.038963,88.435425 76.263428,89.952934 75.180099,91.162369 
	C75.659698,89.637093 76.447090,88.419899 77.524490,87.060318 
z"/>
<path fill="#FEF6ED" opacity="1.000000" stroke="none" 
	d="
M450.457977,388.953064 
	C450.980011,387.534546 451.789551,385.973969 452.848633,384.792725 
	C452.313965,386.385010 451.529694,387.597992 450.457977,388.953064 
z"/>
<path fill="#FEF6ED" opacity="1.000000" stroke="none" 
	d="
M386.456665,443.960052 
	C387.598450,442.934387 389.042175,441.753387 390.809509,440.851562 
	C389.674957,442.022095 388.216797,442.913391 386.456665,443.960052 
z"/>
<path fill="#FCF3E9" opacity="1.000000" stroke="none" 
	d="
M111.546089,58.041878 
	C110.692268,59.127785 109.552498,60.357235 108.157471,61.207069 
	C109.021523,59.946777 110.140831,59.066101 111.546089,58.041878 
z"/>
<path fill="#FDF3E9" opacity="1.000000" stroke="none" 
	d="
M410.956085,64.538910 
	C409.524567,63.956505 407.936096,63.068638 406.651245,61.823917 
	C408.236328,62.389191 409.517731,63.311321 410.956085,64.538910 
z"/>
<path fill="#FEF8ED" opacity="1.000000" stroke="none" 
	d="
M128.084839,444.489319 
	C129.462646,444.557800 131.014450,444.937225 132.775696,445.631165 
	C131.409698,445.563843 129.834259,445.182037 128.084839,444.489319 
z"/>
<path fill="#FEF8ED" opacity="1.000000" stroke="none" 
	d="
M111.044037,433.464935 
	C112.014084,433.570740 113.122208,433.965698 114.073532,434.766754 
	C113.005196,434.699921 112.093651,434.227020 111.044037,433.464935 
z"/>
<path fill="#FEF8ED" opacity="1.000000" stroke="none" 
	d="
M114.024490,435.430359 
	C115.047508,435.568542 116.213051,435.994873 117.132416,436.784302 
	C115.979836,436.671143 115.073425,436.194824 114.024490,435.430359 
z"/>
<path fill="#FEF8ED" opacity="1.000000" stroke="none" 
	d="
M53.907547,375.419067 
	C54.744087,375.927948 55.652149,376.751862 56.200089,377.839844 
	C55.219662,377.313934 54.599361,376.524048 53.907547,375.419067 
z"/>
<path fill="#FEF6ED" opacity="1.000000" stroke="none" 
	d="
M397.437500,437.082031 
	C397.915405,436.257172 398.710480,435.372620 399.811737,434.815704 
	C399.330200,435.769684 398.542419,436.395996 397.437500,437.082031 
z"/>
<path fill="#FEF6ED" opacity="1.000000" stroke="none" 
	d="
M391.405396,441.097961 
	C391.912140,440.272186 392.735504,439.371765 393.835144,438.814026 
	C393.314972,439.778900 392.518524,440.401123 391.405396,441.097961 
z"/>
<path fill="#FEF8ED" opacity="1.000000" stroke="none" 
	d="
M120.026718,439.443817 
	C121.006531,439.559937 122.125305,439.967621 123.078308,440.774048 
	C121.996918,440.693665 121.081299,440.214508 120.026718,439.443817 
z"/>
<path fill="#FEF6ED" opacity="1.000000" stroke="none" 
	d="
M394.423767,439.088562 
	C394.924774,438.251526 395.740723,437.344635 396.830750,436.796783 
	C396.316101,437.776733 395.527374,438.397705 394.423767,439.088562 
z"/>
<path fill="#FEF8ED" opacity="1.000000" stroke="none" 
	d="
M117.040146,437.440002 
	C118.033585,437.564575 119.173370,437.974579 120.105850,438.773132 
	C118.994530,438.682953 118.090515,438.204224 117.040146,437.440002 
z"/>
<path fill="#FDF3E9" opacity="1.000000" stroke="none" 
	d="
M455.993958,110.589249 
	C455.234314,110.074333 454.332886,109.277451 453.795410,108.184937 
	C454.723633,108.695290 455.287872,109.501274 455.993958,110.589249 
z"/>
<path fill="#FCF3E9" opacity="1.000000" stroke="none" 
	d="
M106.588387,62.009121 
	C106.060486,62.778328 105.251930,63.689850 104.169815,64.213860 
	C104.700081,63.268040 105.503906,62.709740 106.588387,62.009121 
z"/>
<path fill="#FEF6ED" opacity="1.000000" stroke="none" 
	d="
M406.209717,431.284058 
	C406.782501,430.500824 407.598175,429.467987 408.771210,428.792084 
	C408.236603,429.777527 407.344635,430.406006 406.209717,431.284058 
z"/>
<path fill="#FEF8ED" opacity="1.000000" stroke="none" 
	d="
M103.715485,428.213318 
	C104.776917,428.417725 106.087517,428.870270 107.142303,429.739594 
	C105.912529,429.591431 104.938583,429.026459 103.715485,428.213318 
z"/>
<path fill="#FEF6ED" opacity="1.000000" stroke="none" 
	d="
M410.428162,427.985596 
	C410.942047,427.213867 411.735992,426.302856 412.818665,425.778320 
	C412.307678,426.725311 411.507904,427.285797 410.428162,427.985596 
z"/>
<path fill="#FDF3E9" opacity="1.000000" stroke="none" 
	d="
M404.967712,59.559612 
	C403.928894,59.424664 402.748260,59.009418 401.847412,58.226585 
	C403.026794,58.332436 403.926331,58.805878 404.967712,59.559612 
z"/>
<path fill="#FEF8ED" opacity="1.000000" stroke="none" 
	d="
M100.041580,425.454346 
	C101.131050,425.676117 102.387184,426.201660 103.339012,427.130463 
	C102.092552,426.941864 101.150406,426.349976 100.041580,425.454346 
z"/>
<path fill="#FEF8ED" opacity="1.000000" stroke="none" 
	d="
M57.993824,381.398743 
	C58.771194,381.935333 59.689507,382.755341 60.217197,383.838776 
	C59.262638,383.295532 58.698704,382.488861 57.993824,381.398743 
z"/>
<path fill="#FEF6ED" opacity="1.000000" stroke="none" 
	d="
M454.455566,383.961639 
	C454.576141,382.930573 454.977844,381.758881 455.762604,380.852905 
	C455.676025,382.019440 455.206360,382.920227 454.455566,383.961639 
z"/>
<path fill="#FEF8ED" opacity="1.000000" stroke="none" 
	d="
M61.713951,386.210999 
	C62.503124,386.782898 63.539066,387.600555 64.214676,388.771545 
	C63.223137,388.235474 62.591930,387.346130 61.713951,386.210999 
z"/>
<path fill="#FDF3E9" opacity="1.000000" stroke="none" 
	d="
M451.993500,105.586281 
	C451.230225,105.067871 450.325836,104.266960 449.793457,103.178337 
	C450.727783,103.695007 451.290100,104.499390 451.993500,105.586281 
z"/>
<path fill="#FCF3E9" opacity="1.000000" stroke="none" 
	d="
M63.553158,103.027313 
	C63.414146,104.088219 62.992851,105.287048 62.219604,106.173660 
	C62.335392,104.962700 62.803135,104.063965 63.553158,103.027313 
z"/>
<path fill="#FCF3E9" opacity="1.000000" stroke="none" 
	d="
M101.596054,66.005257 
	C101.077423,66.759247 100.276855,67.657471 99.182671,68.198730 
	C99.697411,67.277672 100.505760,66.713585 101.596054,66.005257 
z"/>
<path fill="#FDF3E9" opacity="1.000000" stroke="none" 
	d="
M413.961395,66.540527 
	C412.937408,66.421494 411.773590,66.020508 410.864166,65.235550 
	C412.019562,65.320580 412.920532,65.789581 413.961395,66.540527 
z"/>
<path fill="#FEF8ED" opacity="1.000000" stroke="none" 
	d="
M108.032990,431.448608 
	C109.089447,431.582520 110.286537,431.996918 111.175537,432.773956 
	C109.969505,432.667419 109.071564,432.198242 108.032990,431.448608 
z"/>
<path fill="#FCF3E9" opacity="1.000000" stroke="none" 
	d="
M53.533001,117.058380 
	C53.744389,117.737938 53.648758,118.579086 53.291576,119.690125 
	C53.095345,119.046669 53.160660,118.133316 53.533001,117.058380 
z"/>
<path fill="#FEF6ED" opacity="1.000000" stroke="none" 
	d="
M382.292847,445.874176 
	C382.590363,445.321747 383.254639,444.868591 384.228882,444.691162 
	C383.912445,445.302429 383.286011,445.637970 382.292847,445.874176 
z"/>
<path fill="#FEF8ED" opacity="1.000000" stroke="none" 
	d="
M55.888901,378.349182 
	C56.383247,378.541351 56.969006,379.033813 57.199799,379.820068 
	C56.556664,379.625702 56.268490,379.137604 55.888901,378.349182 
z"/>
<path fill="#FEF8ED" opacity="1.000000" stroke="none" 
	d="
M53.107491,373.198547 
	C53.634796,373.510925 54.096924,374.141663 54.178291,374.918396 
	C53.545788,374.548553 53.294052,374.032684 53.107491,373.198547 
z"/>
<path fill="#FEF8ED" opacity="1.000000" stroke="none" 
	d="
M80.941666,408.333191 
	C81.317253,408.181091 81.805359,408.267273 82.098091,408.761475 
	C81.619873,408.970184 81.337029,408.770844 80.941666,408.333191 
z"/>
<path fill="#FEF8ED" opacity="1.000000" stroke="none" 
	d="
M83.704292,411.187866 
	C84.025932,411.034973 84.584038,411.103851 85.040817,411.686493 
	C84.606583,411.936737 84.273666,411.673187 83.704292,411.187866 
z"/>
<path fill="#FEF8ED" opacity="1.000000" stroke="none" 
	d="
M81.946396,409.350586 
	C82.385834,409.245514 82.968521,409.431763 83.292496,410.074921 
	C82.719063,410.235168 82.404358,409.938538 81.946396,409.350586 
z"/>
<path fill="#FDF3E9" opacity="1.000000" stroke="none" 
	d="
M417.062256,69.666809 
	C416.700684,69.815674 416.229584,69.721825 415.924683,69.228424 
	C416.378174,69.027283 416.665436,69.225693 417.062256,69.666809 
z"/>
<path fill="#FEF6ED" opacity="1.000000" stroke="none" 
	d="
M384.809082,444.986450 
	C384.781921,444.530273 385.105164,444.073059 385.787750,443.868774 
	C385.817902,444.409637 385.488708,444.697510 384.809082,444.986450 
z"/>
<path fill="#FEF8ED" opacity="1.000000" stroke="none" 
	d="
M79.937164,407.341309 
	C80.317154,407.181396 80.805290,407.262939 81.098991,407.756714 
	C80.618141,407.973541 80.331734,407.778168 79.937164,407.341309 
z"/>
<path fill="#FEF8ED" opacity="1.000000" stroke="none" 
	d="
M78.939217,406.344666 
	C79.319908,406.181976 79.808182,406.259857 80.099075,406.755005 
	C79.616737,406.976624 79.331764,406.780945 78.939217,406.344666 
z"/>
<path fill="#FDF3E9" opacity="1.000000" stroke="none" 
	d="
M416.061890,68.666641 
	C415.699127,68.815063 415.227112,68.721008 414.924255,68.226608 
	C415.379791,68.025574 415.666199,68.224869 416.061890,68.666641 
z"/>
<path fill="#FCF3E9" opacity="1.000000" stroke="none" 
	d="
M98.662872,67.939209 
	C98.815773,68.307114 98.727051,68.783455 98.234085,69.082550 
	C98.026978,68.619415 98.224106,68.333534 98.662872,67.939209 
z"/>
<path fill="#FCF3E9" opacity="1.000000" stroke="none" 
	d="
M103.649742,63.945107 
	C103.814568,64.305344 103.739998,64.774529 103.245758,65.076920 
	C103.020851,64.624771 103.215599,64.339409 103.649742,63.945107 
z"/>
<path fill="#FEF8ED" opacity="1.000000" stroke="none" 
	d="
M98.939667,424.341797 
	C99.328499,424.180206 99.823044,424.259460 100.107422,424.754303 
	C99.613304,424.974152 99.329346,424.778412 98.939667,424.341797 
z"/>
<path fill="#FCF3E9" opacity="1.000000" stroke="none" 
	d="
M102.662140,64.939522 
	C102.816963,65.305145 102.729713,65.779381 102.238037,66.082077 
	C102.029083,65.623077 102.224571,65.335609 102.662140,64.939522 
z"/>
<path fill="#FEF6ED" opacity="1.000000" stroke="none" 
	d="
M413.345520,426.059662 
	C413.181366,425.675415 413.258087,425.185669 413.753235,424.898560 
	C413.976562,425.385498 413.781464,425.669830 413.345520,426.059662 
z"/>
<path fill="#FEF6ED" opacity="1.000000" stroke="none" 
	d="
M409.346069,429.061707 
	C409.182129,428.673279 409.258057,428.177887 409.750916,427.891968 
	C409.973846,428.385925 409.779907,428.670319 409.346069,429.061707 
z"/>
<path fill="#FEF8ED" opacity="1.000000" stroke="none" 
	d="
M106.937912,430.340271 
	C107.321999,430.181366 107.812881,430.263855 108.101387,430.758911 
	C107.614243,430.974884 107.329475,430.778259 106.937912,430.340271 
z"/>
<path fill="#FDF3E9" opacity="1.000000" stroke="none" 
	d="
M415.069183,67.665543 
	C414.676514,67.815590 414.179077,67.722771 413.895813,67.231842 
	C414.394806,67.030045 414.679626,67.226364 415.069183,67.665543 
z"/>
<path fill="#FDF3E9" opacity="1.000000" stroke="none" 
	d="
M454.060242,107.662064 
	C453.688690,107.816238 453.208557,107.729546 452.912476,107.236725 
	C453.381592,107.027458 453.666656,107.224319 454.060242,107.662064 
z"/>
<path fill="#FDF3E9" opacity="1.000000" stroke="none" 
	d="
M436.061462,86.653648 
	C435.672516,86.818428 435.179779,86.741516 434.893738,86.250320 
	C435.386169,86.028008 435.671936,86.219986 436.061462,86.653648 
z"/>
<path fill="#FDF3E9" opacity="1.000000" stroke="none" 
	d="
M435.053925,85.663979 
	C434.679657,85.817551 434.192780,85.735123 433.902710,85.242828 
	C434.380157,85.031311 434.660706,85.229645 435.053925,85.663979 
z"/>
<path fill="#FCF3E9" opacity="1.000000" stroke="none" 
	d="
M79.664520,84.947815 
	C79.819633,85.321625 79.737595,85.806290 79.245682,86.097137 
	C79.032997,85.621773 79.230179,85.340218 79.664520,84.947815 
z"/>
<path fill="#FCF3E9" opacity="1.000000" stroke="none" 
	d="
M74.659859,90.934395 
	C74.814857,91.308800 74.725868,91.788086 74.232086,92.084167 
	C74.023483,91.613724 74.219673,91.326508 74.659859,90.934395 
z"/>
<path fill="#FCF3E9" opacity="1.000000" stroke="none" 
	d="
M73.658859,91.932785 
	C73.814690,92.314156 73.727783,92.801521 73.236465,93.094009 
	C73.026741,92.612343 73.221428,92.325562 73.658859,91.932785 
z"/>
<path fill="#FDF3E9" opacity="1.000000" stroke="none" 
	d="
M441.059570,92.663483 
	C440.688324,92.816467 440.208557,92.728546 439.912842,92.235352 
	C440.381622,92.027573 440.666351,92.225075 441.059570,92.663483 
z"/>
<path fill="#FDF3E9" opacity="1.000000" stroke="none" 
	d="
M434.062317,84.658173 
	C433.671112,84.817818 433.177582,84.735214 432.895905,84.242172 
	C433.391846,84.026474 433.675903,84.221191 434.062317,84.658173 
z"/>
<path fill="#FCF3E9" opacity="1.000000" stroke="none" 
	d="
M80.806854,83.702721 
	C80.960991,84.015961 80.891769,84.564339 80.314270,85.028824 
	C80.065147,84.609245 80.324318,84.273552 80.806854,83.702721 
z"/>
<path fill="#FCF3E9" opacity="1.000000" stroke="none" 
	d="
M65.662216,100.941116 
	C65.817635,101.317329 65.732224,101.800598 65.239441,102.092468 
	C65.028511,101.616760 65.224937,101.332474 65.662216,100.941116 
z"/>
<path fill="#FDF3E9" opacity="1.000000" stroke="none" 
	d="
M449.059204,101.660965 
	C448.683868,101.816864 448.200134,101.732651 447.907288,101.240173 
	C448.382385,101.028221 448.666626,101.224541 449.059204,101.660965 
z"/>
<path fill="#FCF3E9" opacity="1.000000" stroke="none" 
	d="
M64.660553,101.940468 
	C64.815552,102.314262 64.730339,102.796188 64.236992,103.089104 
	C64.026016,102.616264 64.223175,102.332428 64.660553,101.940468 
z"/>
<path fill="#FDF3E9" opacity="1.000000" stroke="none" 
	d="
M450.060272,102.659454 
	C449.686310,102.815697 449.202728,102.732452 448.908386,102.240311 
	C449.381989,102.027603 449.666290,102.223793 450.060272,102.659454 
z"/>
<path fill="#FCF3E9" opacity="1.000000" stroke="none" 
	d="
M61.660477,105.940086 
	C61.816166,106.314407 61.731430,106.796814 61.239037,107.090500 
	C61.027603,106.617241 61.223827,106.332710 61.660477,105.940086 
z"/>
<path fill="#FDF3E9" opacity="1.000000" stroke="none" 
	d="
M453.059753,106.661293 
	C452.688354,106.816971 452.208374,106.731674 451.911163,106.239487 
	C452.379700,106.028503 452.665436,106.224411 453.059753,106.661293 
z"/>
<path fill="#FDF3E9" opacity="1.000000" stroke="none" 
	d="
M433.064453,83.653732 
	C432.679047,83.814049 432.187897,83.733604 431.901184,83.241425 
	C432.389984,83.024124 432.674347,83.218544 433.064453,83.653732 
z"/>
<path fill="#FCF3E9" opacity="1.000000" stroke="none" 
	d="
M97.660080,68.940826 
	C97.814919,69.298538 97.727379,69.764824 97.233101,70.071289 
	C97.023468,69.624107 97.220581,69.336761 97.660080,68.940826 
z"/>
<path fill="#FDF3E9" opacity="1.000000" stroke="none" 
	d="
M432.058655,82.645195 
	C431.620270,82.749321 431.038422,82.562668 430.713440,81.921959 
	C431.285278,81.763412 431.600189,82.058914 432.058655,82.645195 
z"/>
<path fill="#FCF3E9" opacity="1.000000" stroke="none" 
	d="
M82.764069,81.723434 
	C82.876945,82.104424 82.724442,82.740196 82.020424,83.202896 
	C81.812172,82.679283 82.155434,82.328758 82.764069,81.723434 
z"/>
<path fill="#FCF3E9" opacity="1.000000" stroke="none" 
	d="
M107.659721,60.940956 
	C107.817398,61.314003 107.734459,61.795231 107.243042,62.091198 
	C107.029411,61.620342 107.224258,61.334740 107.659721,60.940956 
z"/>
<path fill="#FDF3E9" opacity="1.000000" stroke="none" 
	d="
M406.295593,60.814331 
	C405.988007,60.962448 405.447327,60.882362 404.980408,60.300827 
	C405.390259,60.061626 405.726349,60.323875 406.295593,60.814331 
z"/>
<path fill="#FDF3E9" opacity="1.000000" stroke="none" 
	d="
M425.062164,76.666321 
	C424.678436,76.816658 424.186768,76.726723 423.900024,76.235039 
	C424.388062,76.030876 424.671143,76.228470 425.062164,76.666321 
z"/>
<path fill="#FCF3E9" opacity="1.000000" stroke="none" 
	d="
M89.654625,75.944138 
	C89.815453,76.306068 89.736908,76.777847 89.243690,77.079697 
	C89.024429,76.624504 89.219841,76.339249 89.654625,75.944138 
z"/>
<path fill="#FDF3E9" opacity="1.000000" stroke="none" 
	d="
M424.062622,75.654572 
	C423.674774,75.816978 423.182739,75.737801 422.896912,75.245911 
	C423.388184,75.026474 423.673309,75.219734 424.062622,75.654572 
z"/>
<path fill="#FEF8ED" opacity="1.000000" stroke="none" 
	d="
M56.940033,380.332825 
	C57.303822,380.181427 57.780334,380.270569 58.084148,380.765198 
	C57.625217,380.971558 57.338989,380.772491 56.940033,380.332825 
z"/>
<path fill="#FEF8ED" opacity="1.000000" stroke="none" 
	d="
M59.943420,384.351624 
	C60.379147,384.246796 60.960602,384.432251 61.288017,385.074585 
	C60.719036,385.234955 60.404095,384.938416 59.943420,384.351624 
z"/>
<path fill="#FEF6ED" opacity="1.000000" stroke="none" 
	d="
M453.341339,385.062012 
	C453.181335,384.672821 453.262512,384.178192 453.756653,383.893921 
	C453.973907,384.388367 453.778229,384.672455 453.341339,385.062012 
z"/>
<path fill="#FCF3E9" opacity="1.000000" stroke="none" 
	d="
M78.662399,85.944221 
	C78.819748,86.325287 78.737244,86.812737 78.245003,87.099808 
	C78.031021,86.616486 78.226776,86.333542 78.662399,85.944221 
z"/>
<path fill="#FEF8ED" opacity="1.000000" stroke="none" 
	d="
M63.945362,389.339355 
	C64.322433,389.180206 64.810867,389.258453 65.101013,389.753357 
	C64.620735,389.972290 64.338730,389.774475 63.945362,389.339355 
z"/>
<path fill="#FEF6ED" opacity="1.000000" stroke="none" 
	d="
M449.337952,390.057587 
	C449.181000,389.681976 449.262421,389.195160 449.755371,388.901917 
	C449.970032,389.379120 449.773193,389.662750 449.337952,390.057587 
z"/>
<path fill="#FEF8ED" opacity="1.000000" stroke="none" 
	d="
M64.938873,390.340515 
	C65.326874,390.180359 65.820816,390.261444 66.106186,390.756165 
	C65.613358,390.973816 65.329079,390.777771 64.938873,390.340515 
z"/>
<path fill="#FDFBF9" opacity="1.000000" stroke="none" 
	d="
M238.377686,320.999756 
	C238.369080,261.179535 238.360092,201.859344 238.352081,142.539154 
	C238.351089,135.274658 238.353424,135.270386 245.735519,135.265594 
	C250.401138,135.262558 255.080124,135.494385 259.728271,135.212082 
	C263.636993,134.974686 264.902771,136.258041 264.867157,140.272934 
	C264.685394,160.766724 264.792908,181.263092 264.796906,201.758545 
	C264.799286,213.877014 264.797363,225.995483 265.853424,238.588577 
	C270.767792,232.899155 275.699890,227.224930 280.593536,221.517700 
	C304.013153,194.204468 327.462189,166.916214 350.779419,139.515793 
	C353.387878,136.450500 356.104797,135.083557 360.162415,135.217957 
	C368.575226,135.496613 377.003693,135.302032 385.425720,135.302032 
	C385.649628,135.702347 385.873535,136.102661 386.097473,136.502975 
	C354.677368,171.667114 323.257263,206.831238 291.478058,242.397293 
	C325.350342,280.780701 358.990540,318.901123 393.706879,358.240997 
	C384.397827,358.240997 376.613220,357.727295 368.927521,358.379517 
	C360.548065,359.090576 355.032745,356.295319 349.557281,349.635437 
	C322.693146,316.960144 295.204865,284.797974 267.922974,252.466431 
	C267.318146,251.749664 266.545227,251.174683 264.997070,249.745514 
	C264.997070,286.260742 264.997070,321.773499 264.997070,357.753540 
	C255.970032,357.753540 247.595200,357.753540 238.377609,357.753540 
	C238.377609,345.676941 238.377609,333.588348 238.377686,320.999756 
z"/>
<path fill="#FDFAF8" opacity="1.000000" stroke="none" 
	d="
M153.212021,171.999908 
	C153.217026,160.842484 153.321533,150.183640 153.167694,139.528519 
	C153.120178,136.237183 154.275253,135.125702 157.508408,135.230560 
	C163.163971,135.413986 168.843689,135.508438 174.487473,135.186920 
	C178.817459,134.940262 179.768051,136.764740 179.750870,140.720047 
	C179.625656,169.527817 179.687393,198.336411 179.688019,227.144730 
	C179.688950,268.608734 179.691528,310.072754 179.684677,351.536743 
	C179.683563,358.214600 179.662613,358.219666 172.821045,358.227325 
	C166.526230,358.234375 160.231415,358.228851 153.212006,358.228851 
	C153.212006,295.945282 153.212006,234.222595 153.212021,171.999908 
z"/>
<path fill="#A67659" opacity="1.000000" stroke="none" 
	d="
M271.823975,477.081848 
	C267.110352,477.399231 261.907593,477.849304 256.698181,477.947327 
	C251.934113,478.036987 247.162857,477.745941 242.038788,477.361389 
	C251.565842,477.087067 261.448883,477.074066 271.823975,477.081848 
z"/>
</svg>